#!OML:ASF F:\VICON\USERDATA\INSTALL\Justin_Nancy\Justin_Nancy.ASF
:FULLY-SPECIFIED
:DEGREES
466
root 1.46024 17.986 24.6093 3.98889 1.4237 -3.32261
lowerback 10.043 0.268641 -1.26505
upperback -0.255419 0.326546 1.96831
thorax -5.92875 0.229693 2.72857
lowerneck -18.4441 -6.31434 -9.85407
upperneck 16.5573 -7.94603 9.4825
head 9.01801 -3.39009 3.78846
rclavicle 5.08454e-015 -8.72168e-015
rhumerus -36.9819 -20.7865 -73.7616
rradius 26.3623
rwrist 9.69592
rhand -16.8353 12.5418
rfingers 7.12502
rthumb 9.39425 -17.2288
lclavicle 5.08454e-015 -8.72168e-015
lhumerus -41.9086 21.1855 77.4326
lradius 31.6521
lwrist -3.31056
lhand -24.961 19.6478
lfingers 7.12502
lthumb 1.54924 49.6219
rfemur -18.528 -1.09521 18.2748
rtibia 30.4047
rfoot -9.38641 -8.19449
rtoes 3.61371
lfemur -11.0129 -1.35103 -18.8746
ltibia 28.4898
lfoot -8.64148 9.24921
ltoes -10.0735
467
root 1.44432 17.9798 24.6668 3.95592 1.21267 -3.42951
lowerback 10.0407 0.224214 -1.17493
upperback -0.183654 0.280696 2.02641
thorax -5.84897 0.203751 2.74504
lowerneck -18.6225 -6.30881 -9.87558
upperneck 16.6436 -7.91354 9.44216
head 9.07497 -3.37474 3.78067
rclavicle 1.50735e-014 -4.32357e-015
rhumerus -37.2402 -20.6286 -73.5669
rradius 26.6762
rwrist 9.46767
rhand -16.6747 12.4163
rfingers 7.12502
rthumb 9.54918 -17.3473
lclavicle 1.50735e-014 -4.32357e-015
lhumerus -41.2437 21.0273 77.6862
lradius 31.7263
lwrist -3.62603
lhand -25.1287 18.8334
lfingers 7.12502
lthumb 1.3873 48.8086
rfemur -18.5941 -1.0594 18.4574
rtibia 28.7935
rfoot -8.86472 -8.7091
rtoes 1.99058
lfemur -10.6438 -1.29911 -18.7297
ltibia 28.2589
lfoot -8.73009 9.4333
ltoes -11.8526
468
root 1.42251 17.9663 24.724 3.99543 0.999181 -3.37274
lowerback 9.964 0.181101 -1.32534
upperback -0.188436 0.206381 2.0361
thorax -5.80723 0.171317 2.8511
lowerneck -18.5562 -6.22744 -9.94383
upperneck 16.6138 -7.80498 9.53139
head 9.04835 -3.32148 3.84011
rclavicle 1.2598e-014 -3.32964e-015
rhumerus -37.4265 -20.6124 -73.3018
rradius 26.5413
rwrist 9.49618
rhand -16.5616 12.7209
rfingers 7.12502
rthumb 9.65836 -17.0376
lclavicle 1.2598e-014 -3.32964e-015
lhumerus -40.7895 20.7725 77.8595
lradius 32.0303
lwrist -3.87477
lhand -24.6946 18.9421
lfingers 7.12502
lthumb 1.80657 48.9142
rfemur -18.6673 -0.816712 18.4507
rtibia 27.1375
rfoot -8.45118 -9.2299
rtoes 0.47573
lfemur -10.3935 -1.35937 -18.7296
ltibia 28.08
lfoot -8.72504 9.68338
ltoes -13.5885
469
root 1.40371 17.9533 24.7857 4.01212 0.866537 -3.26869
lowerback 9.96514 0.1292 -1.42842
upperback -0.28134 0.125206 2.02238
thorax -5.90126 0.136325 2.90795
lowerneck -18.3831 -6.25238 -9.96888
upperneck 16.5285 -7.83658 9.50361
head 8.99138 -3.34639 3.83159
rclavicle -1.17718e-014 -2.47735e-014
rhumerus -37.7873 -20.5183 -72.9878
rradius 26.4607
rwrist 9.41263
rhand -16.3246 12.5015
rfingers 7.12502
rthumb 9.887 -17.2463
lclavicle -1.17718e-014 -2.47735e-014
lhumerus -40.3584 20.2359 78.1138
lradius 32.3761
lwrist -3.80816
lhand -24.1189 21.1122
lfingers 7.12502
lthumb 2.3625 51.0789
rfemur -18.6789 -0.757783 18.3806
rtibia 25.4595
rfoot -8.19522 -9.21985
rtoes 0.386013
lfemur -10.015 -1.49782 -18.7849
ltibia 27.892
lfoot -8.91877 9.90807
ltoes -13.482
470
root 1.38611 17.9445 24.8417 4.04807 0.844513 -3.16663
lowerback 9.89154 0.0511811 -1.49019
upperback -0.296723 0.0150585 2.03107
thorax -5.86921 0.083858 2.96797
lowerneck -18.1809 -6.31191 -10.0442
upperneck 16.3315 -7.90064 9.49561
head 8.89774 -3.38915 3.83285
rclavicle -4.84538e-016 -6.36111e-015
rhumerus -38.0778 -20.5688 -72.6375
rradius 26.6003
rwrist 9.45929
rhand -15.9656 12.1808
rfingers 7.12502
rthumb 10.2334 -17.5502
lclavicle -4.84538e-016 -6.36111e-015
lhumerus -39.8198 19.872 78.3602
lradius 32.7564
lwrist -3.59395
lhand -24.2428 22.0581
lfingers 7.12502
lthumb 2.24288 52.026
rfemur -18.6845 -0.961025 18.3356
rtibia 23.7231
rfoot -7.66165 -8.98723
rtoes -0.901356
lfemur -9.64014 -1.51941 -18.8266
ltibia 27.695
lfoot -9.31579 9.8952
ltoes -12.3608
